<svg xmlns="http://www.w3.org/2000/svg" version="1.1" xmlns:xlink="http://www.w3.org/1999/xlink" width="1440" height="560" preserveAspectRatio="none" viewBox="0 0 1440 560">
    <g mask="url(&quot;#SvgjsMask1000&quot;)" fill="none">
        <rect width="1440" height="560" x="0" y="0" fill="#1e3266"></rect>
        <path d="M1464 560L0 560 L0 305.7Q73.65 259.35, 120 333Q160.8 253.8, 240 294.6Q332.63 267.24, 360 359.87Q390.63 318.5, 432 349.13Q456.93 302.06, 504 326.99Q546.82 249.81, 624 292.63Q716.81 265.44, 744 358.25Q763.02 305.27, 816 324.3Q834.92 271.22, 888 290.13Q929.44 259.57, 960 301.01Q1039.87 260.88, 1080 340.75Q1128.74 269.5, 1200 318.24Q1257.58 303.81, 1272 361.39Q1304.95 274.35, 1392 307.3Q1422.01 265.31, 1464 295.32z" fill="#182f5d"></path>
        <path d="M1512 560L0 560 L0 381.21Q85.12 346.33, 120 431.46Q144.97 384.43, 192 409.4Q220.33 365.73, 264 394.05Q293.92 351.97, 336 381.88Q366.3 340.18, 408 370.47Q471.34 361.81, 480 425.15Q549.9 375.05, 600 444.95Q618.16 391.12, 672 409.28Q687.3 352.58, 744 367.88Q785.98 337.86, 816 379.84Q838.55 330.38, 888 352.93Q943.35 336.28, 960 391.64Q1029.32 340.95, 1080 410.27Q1124.26 334.53, 1200 378.79Q1280.92 339.71, 1320 420.63Q1325.95 354.59, 1392 360.54Q1459.45 307.99, 1512 375.44z" fill="#25467d"></path>
        <path d="M1464 560L0 560 L0 459.54Q83.03 422.57, 120 505.6Q173.17 438.77, 240 491.94Q251.1 431.04, 312 442.15Q354.77 412.92, 384 455.7Q465.44 417.14, 504 498.58Q525.46 448.04, 576 469.5Q621.08 442.58, 648 487.66Q719.07 438.73, 768 509.79Q786.84 408.63, 888 427.47Q954.53 374, 1008 440.54Q1053.29 413.83, 1080 459.12Q1134.15 441.27, 1152 495.43Q1203.02 426.45, 1272 477.47Q1325.07 458.54, 1344 511.61Q1392.24 439.85, 1464 488.08z" fill="#356cb1"></path>
        <path d="M1464 560L0 560 L0 561.7Q43.97 485.67, 120 529.65Q202.67 492.32, 240 574.98Q291.03 506.01, 360 557.05Q389.3 514.35, 432 543.65Q441.65 481.3, 504 490.95Q551.56 466.51, 576 514.07Q619.73 485.8, 648 529.52Q690.83 500.35, 720 543.17Q786.58 489.75, 840 556.32Q876.94 473.26, 960 510.21Q988.78 466.99, 1032 495.77Q1113.79 457.56, 1152 539.35Q1198.66 466.01, 1272 512.68Q1365.89 486.58, 1392 580.47Q1412.47 528.94, 1464 549.42z" fill="white"></path>
    </g>
    <defs>
        <mask id="SvgjsMask1000">
            <rect width="1440" height="560" fill="#ffffff"></rect>
        </mask>
    </defs>
</svg>